<svg xmlns="http://www.w3.org/2000/svg" viewBox="0 0 1024 1024" role="img" aria-label="TNDC THANEE DECOR SIGN BUSINESS">
  <defs>
    <linearGradient id="bg" x1="0" y1="0" x2="1" y2="1"><stop offset="0" stop-color="#07080c"/><stop offset="0.55" stop-color="#111827"/><stop offset="1" stop-color="#210815"/></linearGradient>
    <linearGradient id="pink" x1="0" y1="0" x2="1" y2="1"><stop offset="0" stop-color="#ff2b91"/><stop offset="1" stop-color="#d10073"/></linearGradient>
    <filter id="glow" x="-20%" y="-20%" width="140%" height="140%"><feGaussianBlur stdDeviation="10" result="b"/><feMerge><feMergeNode in="b"/><feMergeNode in="SourceGraphic"/></feMerge></filter>
  </defs>
  <rect width="1024" height="1024" rx="218" fill="url(#bg)"/>
  <rect x="25" y="25" width="974" height="974" rx="198" fill="none" stroke="url(#pink)" stroke-width="22" filter="url(#glow)"/>
  <path d="M55 315 L300 70 H420 L70 420 Z" fill="#d10073" opacity=".94"/>
  <path d="M620 980 L960 640 V780 L760 980 Z" fill="#d10073" opacity=".92"/>
  <path d="M92 350 L350 92" stroke="#ff2b91" stroke-width="24"/>
  <path d="M650 970 L970 650" stroke="#ff2b91" stroke-width="24"/>

  <!-- Large TNDC monogram, kept wide and proportional -->
  <g fill="#fff">
    <path d="M125 220 H335 V292 H270 V580 H190 V292 H125 Z"/>
    <path d="M300 220 H375 L505 470 V220 H585 V595 H505 L380 355 V595 H300 Z"/>
    <path d="M585 220 H700 C820 220 875 292 875 407 C875 525 818 595 700 595 H585 Z M665 292 V523 H700 C760 523 795 487 795 407 C795 328 760 292 700 292 Z"/>
    <path d="M880 245 C935 245 970 272 985 320 L912 343 C906 325 897 317 880 317 C842 317 828 352 828 408 C828 466 842 500 880 500 C900 500 910 491 917 470 L988 493 C970 548 934 575 878 575 C787 575 744 512 744 408 C744 303 790 245 880 245 Z" opacity="0"/>
  </g>
  <!-- graphic stripe details inspired by original TNDC -->
  <g fill="#fff"><rect x="190" y="425" width="80" height="14"/><rect x="190" y="451" width="80" height="14"/><rect x="190" y="477" width="80" height="14"/><rect x="190" y="503" width="80" height="14"/><rect x="590" y="390" width="205" height="15"/><rect x="590" y="420" width="205" height="15"/><rect x="590" y="450" width="205" height="15"/></g>
  <rect x="715" y="420" width="38" height="16" rx="4" fill="#ff1685"/>

  <text x="512" y="700" text-anchor="middle" fill="#fff" font-family="Arial,Helvetica,sans-serif" font-size="70" font-weight="600" letter-spacing="10">THANEE DECOR</text>
  <rect x="110" y="735" width="804" height="10" rx="5" fill="#d10073"/>
  <text x="512" y="835" text-anchor="middle" font-family="Arial,Helvetica,sans-serif" font-size="86" font-weight="900" font-style="italic" letter-spacing="1"><tspan fill="#ff2b91">SIGN</tspan><tspan fill="#fff"> BUSINESS</tspan></text>
  <rect x="120" y="865" width="784" height="10" rx="5" fill="#d10073"/>
</svg>